<svg width="40" height="40" viewBox="0 0 40 40" fill="none" xmlns="http://www.w3.org/2000/svg">
<rect width="40" height="40" fill="#F5F5F5"/>
<g clip-path="url(#clip0_0_1)">
<path d="M40 20C40 8.9543 31.0457 0 20 0C8.9543 0 0 8.9543 0 20C0 31.0457 8.9543 40 20 40C31.0457 40 40 31.0457 40 20Z" fill="#FF2759"/>
<path d="M18.324 6.944C19.332 6.848 20.304 6.884 21.24 7.052C22.56 7.244 23.808 7.724 24.984 8.492C25.128 8.612 25.236 8.66 25.308 8.636C25.428 8.516 25.74 8.24 26.244 7.808C26.868 7.28 27.192 7.004 27.216 6.98C27.288 6.932 27.456 6.908 27.72 6.908C28.008 6.908 28.188 6.932 28.26 6.98C28.38 7.052 28.452 7.22 28.476 7.484C28.5 7.82 28.512 9.068 28.512 11.228C28.512 13.916 28.428 15.32 28.26 15.44C28.164 15.488 27.816 15.512 27.216 15.512C26.616 15.512 26.268 15.488 26.172 15.44C26.028 15.368 25.932 15.116 25.884 14.684C25.74 13.916 25.512 13.208 25.2 12.56C24.912 11.96 24.516 11.432 24.012 10.976C22.98 9.968 21.54 9.428 19.692 9.356C17.724 9.284 16.476 9.932 15.948 11.3C15.828 11.636 15.768 12.02 15.768 12.452C15.768 12.932 15.852 13.352 16.02 13.712C16.38 14.456 17.028 15.008 17.964 15.368C18.132 15.464 19.056 15.68 20.736 16.016C22.464 16.376 23.424 16.592 23.616 16.664C24.672 16.928 25.62 17.372 26.46 17.996C28.188 19.268 29.232 21.008 29.592 23.216C29.688 23.888 29.688 24.728 29.592 25.736C29.448 26.648 29.172 27.524 28.764 28.364C28.284 29.348 27.648 30.14 26.856 30.74C25.752 31.58 24.42 32.108 22.86 32.324C22.26 32.42 21.336 32.432 20.088 32.36C19.968 32.336 19.872 32.324 19.8 32.324C17.736 32.108 16.08 31.592 14.832 30.776C14.688 30.68 14.58 30.644 14.508 30.668C14.388 30.788 14.076 31.064 13.572 31.496C12.948 32.024 12.624 32.3 12.6 32.324C12.528 32.372 12.36 32.396 12.096 32.396C11.808 32.396 11.628 32.372 11.556 32.324C11.436 32.252 11.364 32.084 11.34 31.82C11.316 31.484 11.304 30.248 11.304 28.112C11.304 25.496 11.328 24.152 11.376 24.08C11.4 24.032 11.448 23.972 11.52 23.9C11.64 23.828 11.988 23.792 12.564 23.792C13.188 23.792 13.548 23.816 13.644 23.864C13.812 23.96 13.896 24.212 13.896 24.62C13.968 25.916 14.424 26.984 15.264 27.824C15.888 28.448 16.752 28.94 17.856 29.3C19.272 29.756 20.688 29.912 22.104 29.768C22.296 29.744 22.464 29.72 22.608 29.696C23.28 29.552 23.832 29.264 24.264 28.832C24.744 28.352 25.056 27.704 25.2 26.888C25.392 25.664 25.056 24.62 24.192 23.756C23.832 23.348 23.364 23.06 22.788 22.892C22.692 22.844 21.732 22.616 19.908 22.208C18.18 21.872 17.196 21.656 16.956 21.56C15.18 21.056 13.788 20.108 12.78 18.716C11.748 17.348 11.256 15.812 11.304 14.108C11.376 12.404 11.88 10.94 12.816 9.716C13.704 8.516 15 7.688 16.704 7.232C17.28 7.088 17.82 6.992 18.324 6.944Z" fill="#FCF6F6"/>
</g>
<defs>
<clipPath id="clip0_0_1">
<rect width="40" height="40" fill="white"/>
</clipPath>
</defs>
</svg>
