<svg width="40" height="40" viewBox="0 0 40 40" fill="none" xmlns="http://www.w3.org/2000/svg">
<g clip-path="url(#clip0_1_2)">
<path d="M40 20C40 8.9543 31.0457 0 20 0C8.9543 0 0 8.9543 0 20C0 31.0457 8.9543 40 20 40C31.0457 40 40 31.0457 40 20Z" fill="white"/>
<path d="M20.6591 13.9091C20.5568 13.0455 20.142 12.375 19.4148 11.8977C18.6875 11.4205 17.7955 11.1818 16.7386 11.1818C15.9659 11.1818 15.2898 11.3068 14.7102 11.5568C14.1364 11.8068 13.6875 12.1506 13.3636 12.5881C13.0455 13.0256 12.8864 13.5227 12.8864 14.0795C12.8864 14.5455 12.9972 14.946 13.2188 15.2812C13.446 15.6108 13.7358 15.8864 14.0881 16.108C14.4403 16.3239 14.8097 16.5028 15.196 16.6449C15.5824 16.7812 15.9375 16.892 16.2614 16.9773L18.0341 17.4545C18.4886 17.5739 18.9943 17.7386 19.5511 17.9489C20.1136 18.1591 20.6506 18.446 21.1619 18.8097C21.679 19.1676 22.1051 19.6278 22.4403 20.1903C22.7756 20.7528 22.9432 21.4432 22.9432 22.2614C22.9432 23.2045 22.696 24.0568 22.2017 24.8182C21.7131 25.5795 20.9972 26.1847 20.054 26.6335C19.1165 27.0824 17.9773 27.3068 16.6364 27.3068C15.3864 27.3068 14.304 27.1051 13.3892 26.7017C12.4801 26.2983 11.7642 25.7358 11.2415 25.0142C10.7244 24.2926 10.4318 23.4545 10.3636 22.5H12.5455C12.6023 23.1591 12.8239 23.7045 13.2102 24.1364C13.6023 24.5625 14.0966 24.8807 14.6932 25.0909C15.2955 25.2955 15.9432 25.3977 16.6364 25.3977C17.4432 25.3977 18.1676 25.267 18.8097 25.0057C19.4517 24.7386 19.9602 24.3693 20.3352 23.8977C20.7102 23.4205 20.8977 22.8636 20.8977 22.2273C20.8977 21.6477 20.7358 21.1761 20.4119 20.8125C20.0881 20.4489 19.6619 20.1534 19.1335 19.9261C18.6051 19.6989 18.0341 19.5 17.4205 19.3295L15.2727 18.7159C13.9091 18.3239 12.8295 17.7642 12.0341 17.0369C11.2386 16.3097 10.8409 15.358 10.8409 14.1818C10.8409 13.2045 11.1051 12.3523 11.6335 11.625C12.1676 10.892 12.8835 10.3239 13.7812 9.92045C14.6847 9.51136 15.6932 9.30682 16.8068 9.30682C17.9318 9.30682 18.9318 9.50852 19.8068 9.91193C20.6818 10.3097 21.375 10.8551 21.8864 11.5483C22.4034 12.2415 22.6761 13.0284 22.7045 13.9091H20.6591Z" fill="black"/>
<path d="M30.2614 23.5341L28.7557 23.9602C28.661 23.7093 28.5213 23.4654 28.3366 23.2287C28.1567 22.9872 27.9105 22.7884 27.598 22.6321C27.2855 22.4759 26.8854 22.3977 26.3977 22.3977C25.7301 22.3977 25.1738 22.5516 24.7287 22.8594C24.2884 23.1624 24.0682 23.5483 24.0682 24.017C24.0682 24.4337 24.2197 24.7628 24.5227 25.0043C24.8258 25.2457 25.2992 25.447 25.9432 25.608L27.5625 26.0057C28.5379 26.2424 29.2647 26.6046 29.7429 27.0923C30.2211 27.5753 30.4602 28.1979 30.4602 28.9602C30.4602 29.5852 30.2803 30.1439 29.9205 30.6364C29.5653 31.1288 29.0682 31.517 28.429 31.8011C27.7898 32.0852 27.0464 32.2273 26.1989 32.2273C25.0862 32.2273 24.1652 31.9858 23.4361 31.5028C22.7069 31.0199 22.2453 30.3144 22.0511 29.3864L23.642 28.9886C23.7936 29.5758 24.08 30.0161 24.5014 30.3097C24.9276 30.6032 25.4839 30.75 26.1705 30.75C26.9517 30.75 27.572 30.5843 28.0312 30.2528C28.4953 29.9167 28.7273 29.5142 28.7273 29.0455C28.7273 28.6667 28.5947 28.3494 28.3295 28.0938C28.0644 27.8333 27.6572 27.6392 27.108 27.5114L25.2898 27.0852C24.2907 26.8485 23.5568 26.4815 23.0881 25.9844C22.6241 25.4825 22.392 24.8551 22.392 24.1023C22.392 23.4867 22.5649 22.9422 22.9105 22.4688C23.2609 21.9953 23.7367 21.6236 24.3381 21.3537C24.9441 21.0838 25.6307 20.9489 26.3977 20.9489C27.4773 20.9489 28.3248 21.1856 28.9403 21.6591C29.5606 22.1326 30.0009 22.7576 30.2614 23.5341Z" fill="black"/>
</g>
<defs>
<clipPath id="clip0_1_2">
<rect width="40" height="40" fill="white"/>
</clipPath>
</defs>
</svg>
