<svg width="140" height="41" viewBox="0 0 140 41" fill="none" xmlns="http://www.w3.org/2000/svg">
<mask id="mask0_1_67" style="mask-type:luminance" maskUnits="userSpaceOnUse" x="0" y="0" width="140" height="40">
<path d="M140 0H0V40H140V0Z" fill="white"/>
</mask>
<g mask="url(#mask0_1_67)">
<path d="M40 20C40 8.9543 31.0457 0 20 0C8.9543 0 0 8.9543 0 20C0 31.0457 8.9543 40 20 40C31.0457 40 40 31.0457 40 20Z" fill="#4C4C4C"/>
</g>
<mask id="path-3-outside-1_1_67" maskUnits="userSpaceOnUse" x="10" y="7" width="20" height="27" fill="black">
<rect fill="white" x="10" y="7" width="20" height="27"/>
<path d="M25.5455 14.5455C25.4091 13.3939 24.8561 12.5 23.8864 11.8636C22.9167 11.2273 21.7273 10.9091 20.3182 10.9091C19.2879 10.9091 18.3864 11.0758 17.6136 11.4091C16.8485 11.7424 16.25 12.2008 15.8182 12.7841C15.3939 13.3674 15.1818 14.0303 15.1818 14.7727C15.1818 15.3939 15.3295 15.928 15.625 16.375C15.928 16.8144 16.3144 17.1818 16.7841 17.4773C17.2538 17.7652 17.7462 18.0038 18.2614 18.1932C18.7765 18.375 19.25 18.5227 19.6818 18.6364L22.0455 19.2727C22.6515 19.4318 23.3258 19.6515 24.0682 19.9318C24.8182 20.2121 25.5341 20.5947 26.2159 21.0795C26.9053 21.5568 27.4735 22.1705 27.9205 22.9205C28.3674 23.6705 28.5909 24.5909 28.5909 25.6818C28.5909 26.9394 28.2614 28.0758 27.6023 29.0909C26.9508 30.1061 25.9962 30.9129 24.7386 31.5114C23.4886 32.1098 21.9697 32.4091 20.1818 32.4091C18.5152 32.4091 17.072 32.1402 15.8523 31.6023C14.6402 31.0644 13.6856 30.3144 12.9886 29.3523C12.2992 28.3902 11.9091 27.2727 11.8182 26H14.7273C14.803 26.8788 15.0985 27.6061 15.6136 28.1818C16.1364 28.75 16.7955 29.1742 17.5909 29.4545C18.3939 29.7273 19.2576 29.8636 20.1818 29.8636C21.2576 29.8636 22.2235 29.6894 23.0795 29.3409C23.9356 28.9848 24.6136 28.4924 25.1136 27.8636C25.6136 27.2273 25.8636 26.4848 25.8636 25.6364C25.8636 24.8636 25.6477 24.2348 25.2159 23.75C24.7841 23.2652 24.2159 22.8712 23.5114 22.5682C22.8068 22.2652 22.0455 22 21.2273 21.7727L18.3636 20.9545C16.5455 20.4318 15.1061 19.6856 14.0455 18.7159C12.9848 17.7462 12.4545 16.4773 12.4545 14.9091C12.4545 13.6061 12.8068 12.4697 13.5114 11.5C14.2235 10.5227 15.178 9.76515 16.375 9.22727C17.5795 8.68182 18.9242 8.40909 20.4091 8.40909C21.9091 8.40909 23.2424 8.67803 24.4091 9.21591C25.5758 9.74621 26.5 10.4735 27.1818 11.3977C27.8712 12.322 28.2348 13.3712 28.2727 14.5455H25.5455Z"/>
</mask>
<path d="M25.5455 14.5455C25.4091 13.3939 24.8561 12.5 23.8864 11.8636C22.9167 11.2273 21.7273 10.9091 20.3182 10.9091C19.2879 10.9091 18.3864 11.0758 17.6136 11.4091C16.8485 11.7424 16.25 12.2008 15.8182 12.7841C15.3939 13.3674 15.1818 14.0303 15.1818 14.7727C15.1818 15.3939 15.3295 15.928 15.625 16.375C15.928 16.8144 16.3144 17.1818 16.7841 17.4773C17.2538 17.7652 17.7462 18.0038 18.2614 18.1932C18.7765 18.375 19.25 18.5227 19.6818 18.6364L22.0455 19.2727C22.6515 19.4318 23.3258 19.6515 24.0682 19.9318C24.8182 20.2121 25.5341 20.5947 26.2159 21.0795C26.9053 21.5568 27.4735 22.1705 27.9205 22.9205C28.3674 23.6705 28.5909 24.5909 28.5909 25.6818C28.5909 26.9394 28.2614 28.0758 27.6023 29.0909C26.9508 30.1061 25.9962 30.9129 24.7386 31.5114C23.4886 32.1098 21.9697 32.4091 20.1818 32.4091C18.5152 32.4091 17.072 32.1402 15.8523 31.6023C14.6402 31.0644 13.6856 30.3144 12.9886 29.3523C12.2992 28.3902 11.9091 27.2727 11.8182 26H14.7273C14.803 26.8788 15.0985 27.6061 15.6136 28.1818C16.1364 28.75 16.7955 29.1742 17.5909 29.4545C18.3939 29.7273 19.2576 29.8636 20.1818 29.8636C21.2576 29.8636 22.2235 29.6894 23.0795 29.3409C23.9356 28.9848 24.6136 28.4924 25.1136 27.8636C25.6136 27.2273 25.8636 26.4848 25.8636 25.6364C25.8636 24.8636 25.6477 24.2348 25.2159 23.75C24.7841 23.2652 24.2159 22.8712 23.5114 22.5682C22.8068 22.2652 22.0455 22 21.2273 21.7727L18.3636 20.9545C16.5455 20.4318 15.1061 19.6856 14.0455 18.7159C12.9848 17.7462 12.4545 16.4773 12.4545 14.9091C12.4545 13.6061 12.8068 12.4697 13.5114 11.5C14.2235 10.5227 15.178 9.76515 16.375 9.22727C17.5795 8.68182 18.9242 8.40909 20.4091 8.40909C21.9091 8.40909 23.2424 8.67803 24.4091 9.21591C25.5758 9.74621 26.5 10.4735 27.1818 11.3977C27.8712 12.322 28.2348 13.3712 28.2727 14.5455H25.5455Z" fill="white"/>
<path d="M25.5455 14.5455L24.5524 14.6631L24.6569 15.5455H25.5455V14.5455ZM23.8864 11.8636L23.3377 12.6997L23.3377 12.6997L23.8864 11.8636ZM17.6136 11.4091L17.2175 10.4909L17.2142 10.4923L17.6136 11.4091ZM15.8182 12.7841L15.0144 12.1891L15.0094 12.1959L15.8182 12.7841ZM15.625 16.375L14.7908 16.9264L14.7962 16.9346L14.8018 16.9427L15.625 16.375ZM16.7841 17.4773L16.2516 18.3238L16.2615 18.3299L16.7841 17.4773ZM18.2614 18.1932L17.9163 19.1318L17.9285 19.1362L18.2614 18.1932ZM19.6818 18.6364L19.9418 17.6707L19.9363 17.6693L19.6818 18.6364ZM22.0455 19.2727L21.7855 20.2384L21.7916 20.24L22.0455 19.2727ZM24.0682 19.9318L23.715 20.8674L23.7181 20.8685L24.0682 19.9318ZM26.2159 21.0795L25.6363 21.8946L25.6467 21.9017L26.2159 21.0795ZM27.9205 22.9205L28.7795 22.4085L28.7795 22.4085L27.9205 22.9205ZM27.6023 29.0909L26.7635 28.5464L26.7607 28.5508L27.6023 29.0909ZM24.7386 31.5114L24.3089 30.6084L24.3068 30.6094L24.7386 31.5114ZM15.8523 31.6023L15.4467 32.5163L15.4488 32.5173L15.8523 31.6023ZM12.9886 29.3523L12.1758 29.9347L12.1788 29.9389L12.9886 29.3523ZM11.8182 26V25H10.7442L10.8207 26.0712L11.8182 26ZM14.7273 26L15.7236 25.9141L15.6448 25H14.7273V26ZM15.6136 28.1818L14.8683 28.8487L14.8777 28.8589L15.6136 28.1818ZM17.5909 29.4545L17.2585 30.3978L17.2693 30.4014L17.5909 29.4545ZM23.0795 29.3409L23.4566 30.2671L23.4636 30.2642L23.0795 29.3409ZM25.1136 27.8636L25.8964 28.486L25.9 28.4815L25.1136 27.8636ZM25.2159 23.75L25.9627 23.0849L25.9627 23.0849L25.2159 23.75ZM23.5114 22.5682L23.1163 23.4868L23.1163 23.4868L23.5114 22.5682ZM21.2273 21.7727L20.9525 22.7343L20.9596 22.7362L21.2273 21.7727ZM18.3636 20.9545L18.0873 21.9156L18.0889 21.9161L18.3636 20.9545ZM14.0455 18.7159L13.3707 19.4539L13.3707 19.4539L14.0455 18.7159ZM13.5114 11.5L12.7032 10.9111L12.7024 10.9122L13.5114 11.5ZM16.375 9.22727L16.7849 10.1394L16.7875 10.1382L16.375 9.22727ZM24.4091 9.21591L23.9904 10.1241L23.9953 10.1263L24.4091 9.21591ZM27.1818 11.3977L26.3771 11.9914L26.3802 11.9956L27.1818 11.3977ZM28.2727 14.5455V15.5455H29.3055L29.2722 14.5132L28.2727 14.5455ZM25.5455 14.5455L26.5385 14.4279C26.3674 12.9829 25.6516 11.826 24.435 11.0276L23.8864 11.8636L23.3377 12.6997C24.0605 13.174 24.4508 13.805 24.5524 14.6631L25.5455 14.5455ZM23.8864 11.8636L24.435 11.0276C23.2703 10.2632 21.8799 9.90909 20.3182 9.90909V10.9091V11.9091C21.5746 11.9091 22.5631 12.1913 23.3377 12.6997L23.8864 11.8636ZM20.3182 10.9091V9.90909C19.1814 9.90909 18.1401 10.0929 17.2175 10.4909L17.6136 11.4091L18.0097 12.3273C18.6327 12.0586 19.3943 11.9091 20.3182 11.9091V10.9091ZM17.6136 11.4091L17.2142 10.4923C16.3129 10.885 15.5653 11.445 15.0144 12.1891L15.8182 12.7841L16.6219 13.3791C16.9347 12.9565 17.3841 12.5999 18.013 12.3259L17.6136 11.4091ZM15.8182 12.7841L15.0094 12.1959C14.4571 12.9555 14.1818 13.8256 14.1818 14.7727H15.1818H16.1818C16.1818 14.235 16.3308 13.7794 16.6269 13.3723L15.8182 12.7841ZM15.1818 14.7727H14.1818C14.1818 15.558 14.3708 16.2911 14.7908 16.9264L15.625 16.375L16.4592 15.8236C16.2883 15.565 16.1818 15.2299 16.1818 14.7727H15.1818ZM15.625 16.375L14.8018 16.9427C15.1849 17.4982 15.6718 17.959 16.2516 18.3237L16.7841 17.4773L17.3165 16.6308C16.957 16.4047 16.6712 16.1306 16.4482 15.8073L15.625 16.375ZM16.7841 17.4773L16.2615 18.3299C16.7872 18.6521 17.3391 18.9195 17.9163 19.1318L18.2614 18.1932L18.6064 17.2546C18.1534 17.088 17.7204 16.8782 17.3067 16.6247L16.7841 17.4773ZM18.2614 18.1932L17.9285 19.1362C18.464 19.3252 18.964 19.4815 19.4273 19.6034L19.6818 18.6364L19.9363 17.6693C19.536 17.5639 19.089 17.4248 18.5942 17.2502L18.2614 18.1932ZM19.6818 18.6364L19.4218 19.602L21.7855 20.2383L22.0455 19.2727L22.3054 18.3071L19.9418 17.6707L19.6818 18.6364ZM22.0455 19.2727L21.7916 20.24C22.3565 20.3883 22.997 20.5963 23.715 20.8674L24.0682 19.9318L24.4214 18.9963C23.6546 18.7068 22.9465 18.4754 22.2994 18.3055L22.0455 19.2727ZM24.0682 19.9318L23.7181 20.8685C24.3831 21.1171 25.0222 21.4578 25.6364 21.8945L26.2159 21.0795L26.7954 20.2646C26.0459 19.7316 25.2533 19.3072 24.4183 18.9951L24.0682 19.9318ZM26.2159 21.0795L25.6467 21.9017C26.2135 22.2942 26.6847 22.8002 27.0614 23.4324L27.9205 22.9205L28.7795 22.4085C28.2623 21.5407 27.5971 20.8195 26.7851 20.2574L26.2159 21.0795ZM27.9205 22.9205L27.0614 23.4324C27.3957 23.9933 27.5909 24.7266 27.5909 25.6818H28.5909H29.5909C29.5909 24.4552 29.3391 23.3476 28.7795 22.4085L27.9205 22.9205ZM28.5909 25.6818H27.5909C27.5909 26.7541 27.3131 27.6999 26.7635 28.5464L27.6023 29.0909L28.441 29.6355C29.2096 28.4516 29.5909 27.1247 29.5909 25.6818H28.5909ZM27.6023 29.0909L26.7607 28.5508C26.2247 29.3859 25.4246 30.0774 24.3089 30.6084L24.7386 31.5114L25.1684 32.4143C26.5678 31.7483 27.6768 30.8262 28.4439 29.631L27.6023 29.0909ZM24.7386 31.5114L24.3068 30.6094C23.2248 31.1275 21.862 31.4091 20.1818 31.4091V32.4091V33.4091C22.0774 33.4091 23.7525 33.0922 25.1705 32.4133L24.7386 31.5114ZM20.1818 32.4091V31.4091C18.6204 31.4091 17.3208 31.1569 16.2558 30.6873L15.8523 31.6023L15.4488 32.5173C16.8232 33.1234 18.4099 33.4091 20.1818 33.4091V32.4091ZM15.8523 31.6023L16.2579 30.6882C15.1878 30.2134 14.3803 29.5688 13.7985 28.7656L12.9886 29.3523L12.1788 29.9389C12.9909 31.06 14.0925 31.9154 15.4467 32.5163L15.8523 31.6023ZM12.9886 29.3523L13.8015 28.7698C13.2281 27.9695 12.8945 27.0322 12.8156 25.9288L11.8182 26L10.8207 26.0712C10.9237 27.5132 11.3704 28.8108 12.1758 29.9347L12.9886 29.3523ZM11.8182 26V27H14.7273V26V25H11.8182V26ZM14.7273 26L13.731 26.0859C13.8226 27.1485 14.1889 28.0892 14.8684 28.8486L15.6136 28.1818L16.3589 27.515C16.0081 27.123 15.7835 26.6091 15.7236 25.9141L14.7273 26ZM15.6136 28.1818L14.8777 28.8589C15.5212 29.5583 16.3234 30.0682 17.2586 30.3977L17.5909 29.4545L17.9233 28.5114C17.2675 28.2803 16.7515 27.9417 16.3496 27.5048L15.6136 28.1818ZM17.5909 29.4545L17.2693 30.4014C18.1848 30.7123 19.158 30.8636 20.1818 30.8636V29.8636V28.8636C19.3572 28.8636 18.6031 28.7422 17.9125 28.5077L17.5909 29.4545ZM20.1818 29.8636V30.8636C21.3659 30.8636 22.4628 30.6716 23.4566 30.2671L23.0795 29.3409L22.7025 28.4147C21.9841 28.7072 21.1492 28.8636 20.1818 28.8636V29.8636ZM23.0795 29.3409L23.4636 30.2642C24.4516 29.8533 25.2758 29.2664 25.8963 28.486L25.1136 27.8636L24.3309 27.2412C23.9515 27.7184 23.4197 28.1164 22.6955 28.4176L23.0795 29.3409ZM25.1136 27.8636L25.9 28.4815C26.5454 27.6599 26.8636 26.6972 26.8636 25.6364H25.8636H24.8636C24.8636 26.2725 24.6818 26.7946 24.3273 27.2458L25.1136 27.8636ZM25.8636 25.6364H26.8636C26.8636 24.6676 26.5876 23.7866 25.9627 23.0849L25.2159 23.75L24.4691 24.4151C24.7079 24.6831 24.8636 25.0597 24.8636 25.6364H25.8636ZM25.2159 23.75L25.9627 23.0849C25.4175 22.4728 24.7213 22 23.9065 21.6495L23.5114 22.5682L23.1163 23.4868C23.7106 23.7424 24.1507 24.0575 24.4691 24.4151L25.2159 23.75ZM23.5114 22.5682L23.9065 21.6495C23.1564 21.3269 22.352 21.0473 21.4949 20.8092L21.2273 21.7727L20.9596 22.7362C21.7389 22.9527 22.4573 23.2034 23.1163 23.4868L23.5114 22.5682ZM21.2273 21.7727L21.502 20.8112L18.6384 19.993L18.3636 20.9545L18.0889 21.9161L20.9526 22.7343L21.2273 21.7727ZM18.3636 20.9545L18.6399 19.9935C16.925 19.5004 15.6368 18.8159 14.7202 17.9779L14.0455 18.7159L13.3707 19.4539C14.5753 20.5553 16.1659 21.3632 18.0873 21.9156L18.3636 20.9545ZM14.0455 18.7159L14.7202 17.9779C13.887 17.2161 13.4545 16.2251 13.4545 14.9091H12.4545H11.4545C11.4545 16.7294 12.0827 18.2763 13.3707 19.4539L14.0455 18.7159ZM12.4545 14.9091H13.4545C13.4545 13.7978 13.7509 12.8716 14.3204 12.0878L13.5114 11.5L12.7024 10.9122C11.8627 12.0678 11.4545 13.4143 11.4545 14.9091H12.4545ZM13.5114 11.5L14.3196 12.0889C14.9206 11.264 15.7326 10.6123 16.7849 10.1394L16.375 9.22727L15.9651 8.31513C14.6235 8.91803 13.5263 9.78143 12.7032 10.9111L13.5114 11.5ZM16.375 9.22727L16.7875 10.1382C17.8474 9.65829 19.049 9.40909 20.4091 9.40909V8.40909V7.40909C18.7995 7.40909 17.3117 7.70535 15.9625 8.31632L16.375 9.22727ZM20.4091 8.40909V9.40909C21.7886 9.40909 22.9752 9.65601 23.9904 10.124L24.4091 9.21591L24.8278 8.30778C23.5096 7.70005 22.0296 7.40909 20.4091 7.40909V8.40909ZM24.4091 9.21591L23.9953 10.1263C25.0251 10.5944 25.8078 11.2196 26.3771 11.9914L27.1818 11.3977L27.9865 10.8041C27.1922 9.72733 26.1264 8.89804 24.8229 8.30554L24.4091 9.21591ZM27.1818 11.3977L26.3802 11.9956C26.9449 12.7527 27.2418 13.6037 27.2732 14.5777L28.2727 14.5455L29.2722 14.5132C29.2279 13.1388 28.7975 11.8912 27.9834 10.7998L27.1818 11.3977ZM28.2727 14.5455V13.5455H25.5455V14.5455V15.5455H28.2727V14.5455Z" fill="black" mask="url(#path-3-outside-1_1_67)"/>
<path d="M25.5455 14.5455L24.5524 14.6631L24.6569 15.5455H25.5455V14.5455ZM23.8864 11.8636L23.3377 12.6997L23.3377 12.6997L23.8864 11.8636ZM17.6136 11.4091L17.2175 10.4909L17.2142 10.4923L17.6136 11.4091ZM15.8182 12.7841L15.0144 12.1891L15.0094 12.1959L15.8182 12.7841ZM15.625 16.375L14.7908 16.9264L14.7962 16.9346L14.8018 16.9427L15.625 16.375ZM16.7841 17.4773L16.2516 18.3238L16.2615 18.3299L16.7841 17.4773ZM18.2614 18.1932L17.9163 19.1318L17.9285 19.1362L18.2614 18.1932ZM19.6818 18.6364L19.9418 17.6707L19.9363 17.6693L19.6818 18.6364ZM22.0455 19.2727L21.7855 20.2384L21.7916 20.24L22.0455 19.2727ZM24.0682 19.9318L23.715 20.8674L23.7181 20.8685L24.0682 19.9318ZM26.2159 21.0795L25.6363 21.8946L25.6467 21.9017L26.2159 21.0795ZM27.9205 22.9205L28.7795 22.4085L28.7795 22.4085L27.9205 22.9205ZM27.6023 29.0909L26.7635 28.5464L26.7607 28.5508L27.6023 29.0909ZM24.7386 31.5114L24.3089 30.6084L24.3068 30.6094L24.7386 31.5114ZM15.8523 31.6023L15.4467 32.5163L15.4488 32.5173L15.8523 31.6023ZM12.9886 29.3523L12.1758 29.9347L12.1788 29.9389L12.9886 29.3523ZM11.8182 26V25H10.7442L10.8207 26.0712L11.8182 26ZM14.7273 26L15.7236 25.9141L15.6448 25H14.7273V26ZM15.6136 28.1818L14.8683 28.8487L14.8777 28.8589L15.6136 28.1818ZM17.5909 29.4545L17.2585 30.3978L17.2693 30.4014L17.5909 29.4545ZM23.0795 29.3409L23.4566 30.2671L23.4636 30.2642L23.0795 29.3409ZM25.1136 27.8636L25.8964 28.486L25.9 28.4815L25.1136 27.8636ZM25.2159 23.75L25.9627 23.0849L25.9627 23.0849L25.2159 23.75ZM23.5114 22.5682L23.1163 23.4868L23.1163 23.4868L23.5114 22.5682ZM21.2273 21.7727L20.9525 22.7343L20.9596 22.7362L21.2273 21.7727ZM18.3636 20.9545L18.0873 21.9156L18.0889 21.9161L18.3636 20.9545ZM14.0455 18.7159L13.3707 19.4539L13.3707 19.4539L14.0455 18.7159ZM13.5114 11.5L12.7032 10.9111L12.7024 10.9122L13.5114 11.5ZM16.375 9.22727L16.7849 10.1394L16.7875 10.1382L16.375 9.22727ZM24.4091 9.21591L23.9904 10.1241L23.9953 10.1263L24.4091 9.21591ZM27.1818 11.3977L26.3771 11.9914L26.3802 11.9956L27.1818 11.3977ZM28.2727 14.5455V15.5455H29.3055L29.2722 14.5132L28.2727 14.5455ZM25.5455 14.5455L26.5385 14.4279C26.3674 12.9829 25.6516 11.826 24.435 11.0276L23.8864 11.8636L23.3377 12.6997C24.0605 13.174 24.4508 13.805 24.5524 14.6631L25.5455 14.5455ZM23.8864 11.8636L24.435 11.0276C23.2703 10.2632 21.8799 9.90909 20.3182 9.90909V10.9091V11.9091C21.5746 11.9091 22.5631 12.1913 23.3377 12.6997L23.8864 11.8636ZM20.3182 10.9091V9.90909C19.1814 9.90909 18.1401 10.0929 17.2175 10.4909L17.6136 11.4091L18.0097 12.3273C18.6327 12.0586 19.3943 11.9091 20.3182 11.9091V10.9091ZM17.6136 11.4091L17.2142 10.4923C16.3129 10.885 15.5653 11.445 15.0144 12.1891L15.8182 12.7841L16.6219 13.3791C16.9347 12.9565 17.3841 12.5999 18.013 12.3259L17.6136 11.4091ZM15.8182 12.7841L15.0094 12.1959C14.4571 12.9555 14.1818 13.8256 14.1818 14.7727H15.1818H16.1818C16.1818 14.235 16.3308 13.7794 16.6269 13.3723L15.8182 12.7841ZM15.1818 14.7727H14.1818C14.1818 15.558 14.3708 16.2911 14.7908 16.9264L15.625 16.375L16.4592 15.8236C16.2883 15.565 16.1818 15.2299 16.1818 14.7727H15.1818ZM15.625 16.375L14.8018 16.9427C15.1849 17.4982 15.6718 17.959 16.2516 18.3237L16.7841 17.4773L17.3165 16.6308C16.957 16.4047 16.6712 16.1306 16.4482 15.8073L15.625 16.375ZM16.7841 17.4773L16.2615 18.3299C16.7872 18.6521 17.3391 18.9195 17.9163 19.1318L18.2614 18.1932L18.6064 17.2546C18.1534 17.088 17.7204 16.8782 17.3067 16.6247L16.7841 17.4773ZM18.2614 18.1932L17.9285 19.1362C18.464 19.3252 18.964 19.4815 19.4273 19.6034L19.6818 18.6364L19.9363 17.6693C19.536 17.5639 19.089 17.4248 18.5942 17.2502L18.2614 18.1932ZM19.6818 18.6364L19.4218 19.602L21.7855 20.2383L22.0455 19.2727L22.3054 18.3071L19.9418 17.6707L19.6818 18.6364ZM22.0455 19.2727L21.7916 20.24C22.3565 20.3883 22.997 20.5963 23.715 20.8674L24.0682 19.9318L24.4214 18.9963C23.6546 18.7068 22.9465 18.4754 22.2994 18.3055L22.0455 19.2727ZM24.0682 19.9318L23.7181 20.8685C24.3831 21.1171 25.0222 21.4578 25.6364 21.8945L26.2159 21.0795L26.7954 20.2646C26.0459 19.7316 25.2533 19.3072 24.4183 18.9951L24.0682 19.9318ZM26.2159 21.0795L25.6467 21.9017C26.2135 22.2942 26.6847 22.8002 27.0614 23.4324L27.9205 22.9205L28.7795 22.4085C28.2623 21.5407 27.5971 20.8195 26.7851 20.2574L26.2159 21.0795ZM27.9205 22.9205L27.0614 23.4324C27.3957 23.9933 27.5909 24.7266 27.5909 25.6818H28.5909H29.5909C29.5909 24.4552 29.3391 23.3476 28.7795 22.4085L27.9205 22.9205ZM28.5909 25.6818H27.5909C27.5909 26.7541 27.3131 27.6999 26.7635 28.5464L27.6023 29.0909L28.441 29.6355C29.2096 28.4516 29.5909 27.1247 29.5909 25.6818H28.5909ZM27.6023 29.0909L26.7607 28.5508C26.2247 29.3859 25.4246 30.0774 24.3089 30.6084L24.7386 31.5114L25.1684 32.4143C26.5678 31.7483 27.6768 30.8262 28.4439 29.631L27.6023 29.0909ZM24.7386 31.5114L24.3068 30.6094C23.2248 31.1275 21.862 31.4091 20.1818 31.4091V32.4091V33.4091C22.0774 33.4091 23.7525 33.0922 25.1705 32.4133L24.7386 31.5114ZM20.1818 32.4091V31.4091C18.6204 31.4091 17.3208 31.1569 16.2558 30.6873L15.8523 31.6023L15.4488 32.5173C16.8232 33.1234 18.4099 33.4091 20.1818 33.4091V32.4091ZM15.8523 31.6023L16.2579 30.6882C15.1878 30.2134 14.3803 29.5688 13.7985 28.7656L12.9886 29.3523L12.1788 29.9389C12.9909 31.06 14.0925 31.9154 15.4467 32.5163L15.8523 31.6023ZM12.9886 29.3523L13.8015 28.7698C13.2281 27.9695 12.8945 27.0322 12.8156 25.9288L11.8182 26L10.8207 26.0712C10.9237 27.5132 11.3704 28.8108 12.1758 29.9347L12.9886 29.3523ZM11.8182 26V27H14.7273V26V25H11.8182V26ZM14.7273 26L13.731 26.0859C13.8226 27.1485 14.1889 28.0892 14.8684 28.8486L15.6136 28.1818L16.3589 27.515C16.0081 27.123 15.7835 26.6091 15.7236 25.9141L14.7273 26ZM15.6136 28.1818L14.8777 28.8589C15.5212 29.5583 16.3234 30.0682 17.2586 30.3977L17.5909 29.4545L17.9233 28.5114C17.2675 28.2803 16.7515 27.9417 16.3496 27.5048L15.6136 28.1818ZM17.5909 29.4545L17.2693 30.4014C18.1848 30.7123 19.158 30.8636 20.1818 30.8636V29.8636V28.8636C19.3572 28.8636 18.6031 28.7422 17.9125 28.5077L17.5909 29.4545ZM20.1818 29.8636V30.8636C21.3659 30.8636 22.4628 30.6716 23.4566 30.2671L23.0795 29.3409L22.7025 28.4147C21.9841 28.7072 21.1492 28.8636 20.1818 28.8636V29.8636ZM23.0795 29.3409L23.4636 30.2642C24.4516 29.8533 25.2758 29.2664 25.8963 28.486L25.1136 27.8636L24.3309 27.2412C23.9515 27.7184 23.4197 28.1164 22.6955 28.4176L23.0795 29.3409ZM25.1136 27.8636L25.9 28.4815C26.5454 27.6599 26.8636 26.6972 26.8636 25.6364H25.8636H24.8636C24.8636 26.2725 24.6818 26.7946 24.3273 27.2458L25.1136 27.8636ZM25.8636 25.6364H26.8636C26.8636 24.6676 26.5876 23.7866 25.9627 23.0849L25.2159 23.75L24.4691 24.4151C24.7079 24.6831 24.8636 25.0597 24.8636 25.6364H25.8636ZM25.2159 23.75L25.9627 23.0849C25.4175 22.4728 24.7213 22 23.9065 21.6495L23.5114 22.5682L23.1163 23.4868C23.7106 23.7424 24.1507 24.0575 24.4691 24.4151L25.2159 23.75ZM23.5114 22.5682L23.9065 21.6495C23.1564 21.3269 22.352 21.0473 21.4949 20.8092L21.2273 21.7727L20.9596 22.7362C21.7389 22.9527 22.4573 23.2034 23.1163 23.4868L23.5114 22.5682ZM21.2273 21.7727L21.502 20.8112L18.6384 19.993L18.3636 20.9545L18.0889 21.9161L20.9526 22.7343L21.2273 21.7727ZM18.3636 20.9545L18.6399 19.9935C16.925 19.5004 15.6368 18.8159 14.7202 17.9779L14.0455 18.7159L13.3707 19.4539C14.5753 20.5553 16.1659 21.3632 18.0873 21.9156L18.3636 20.9545ZM14.0455 18.7159L14.7202 17.9779C13.887 17.2161 13.4545 16.2251 13.4545 14.9091H12.4545H11.4545C11.4545 16.7294 12.0827 18.2763 13.3707 19.4539L14.0455 18.7159ZM12.4545 14.9091H13.4545C13.4545 13.7978 13.7509 12.8716 14.3204 12.0878L13.5114 11.5L12.7024 10.9122C11.8627 12.0678 11.4545 13.4143 11.4545 14.9091H12.4545ZM13.5114 11.5L14.3196 12.0889C14.9206 11.264 15.7326 10.6123 16.7849 10.1394L16.375 9.22727L15.9651 8.31513C14.6235 8.91803 13.5263 9.78143 12.7032 10.9111L13.5114 11.5ZM16.375 9.22727L16.7875 10.1382C17.8474 9.65829 19.049 9.40909 20.4091 9.40909V8.40909V7.40909C18.7995 7.40909 17.3117 7.70535 15.9625 8.31632L16.375 9.22727ZM20.4091 8.40909V9.40909C21.7886 9.40909 22.9752 9.65601 23.9904 10.124L24.4091 9.21591L24.8278 8.30778C23.5096 7.70005 22.0296 7.40909 20.4091 7.40909V8.40909ZM24.4091 9.21591L23.9953 10.1263C25.0251 10.5944 25.8078 11.2196 26.3771 11.9914L27.1818 11.3977L27.9865 10.8041C27.1922 9.72733 26.1264 8.89804 24.8229 8.30554L24.4091 9.21591ZM27.1818 11.3977L26.3802 11.9956C26.9449 12.7527 27.2418 13.6037 27.2732 14.5777L28.2727 14.5455L29.2722 14.5132C29.2279 13.1388 28.7975 11.8912 27.9834 10.7998L27.1818 11.3977ZM28.2727 14.5455V13.5455H25.5455V14.5455V15.5455H28.2727V14.5455Z" fill="black" fill-opacity="0.32" mask="url(#path-3-outside-1_1_67)"/>
<path d="M41.9102 11.0391C42.7305 11.1328 43.4219 11.2031 43.9844 11.25C44.5469 11.2734 44.9922 11.2969 45.3203 11.3203C45.7188 11.3437 46.0352 11.3555 46.2695 11.3555C46.668 11.3555 47.125 11.3437 47.6406 11.3203C48.0859 11.2969 48.6016 11.2617 49.1875 11.2148C49.7969 11.1445 50.4531 11.0391 51.1562 10.8984C50.8281 11.25 50.5586 11.5898 50.3477 11.918C50.1367 12.2227 49.9727 12.5039 49.8555 12.7617C49.7148 13.043 49.5977 13.3008 49.5039 13.5352C49.4102 13.8398 49.3047 14.3086 49.1875 14.9414C49.0703 15.4805 48.9414 16.2422 48.8008 17.2266C48.6836 18.2109 48.5312 19.5 48.3438 21.0938C49.1406 21.1172 49.832 21.1289 50.418 21.1289C51.0039 21.1055 51.4961 21.0938 51.8945 21.0938H53.0547C53.3828 21.0703 53.7578 21.0469 54.1797 21.0234C54.8828 21 55.9492 20.9297 57.3789 20.8125C57.4961 19.7344 57.5547 18.8086 57.5547 18.0352C57.5781 17.2383 57.5664 16.5703 57.5195 16.0312C57.4727 15.4219 57.4023 14.9062 57.3086 14.4844C57.2383 14.25 57.1328 13.9688 56.9922 13.6406C56.875 13.3594 56.7109 13.0195 56.5 12.6211C56.3125 12.1992 56.0547 11.6953 55.7266 11.1094C56.3359 11.2031 56.875 11.2734 57.3438 11.3203C57.8359 11.3437 58.2461 11.3672 58.5742 11.3906C58.9492 11.4141 59.2656 11.4258 59.5234 11.4258C59.7812 11.4258 60.1211 11.4141 60.543 11.3906C60.8945 11.3672 61.3281 11.3555 61.8438 11.3555C62.3594 11.332 62.9922 11.2969 63.7422 11.25C63.5547 11.5781 63.3906 11.918 63.25 12.2695C63.1094 12.6211 62.9922 12.9375 62.8984 13.2188C62.8047 13.5469 62.7109 13.875 62.6172 14.2031C62.5 14.6953 62.3945 15.4102 62.3008 16.3477C62.2305 17.2852 62.1602 18.3281 62.0898 19.4766C62.043 20.625 61.9961 21.8203 61.9492 23.0625C61.9258 24.3047 61.9023 25.4766 61.8789 26.5781C61.8789 27.6797 61.8906 28.6641 61.9141 29.5312C61.9375 30.375 61.9844 30.9727 62.0547 31.3242C62.125 31.7461 62.2422 32.1797 62.4062 32.625C62.5469 33.0234 62.7344 33.457 62.9688 33.9258C63.2031 34.3711 63.5078 34.793 63.8828 35.1914L55.4102 35.8242C55.7617 35.4961 56.043 35.1797 56.2539 34.875C56.4648 34.5469 56.6289 34.2656 56.7461 34.0312C56.8633 33.7734 56.9453 33.5273 56.9922 33.293C57.0156 33.0117 57.0508 32.5195 57.0977 31.8164C57.1445 31.2305 57.1914 30.3984 57.2383 29.3203C57.2852 28.2422 57.332 26.8125 57.3789 25.0312C57.0508 25.0312 56.6523 25.043 56.1836 25.0664C55.7383 25.0664 55.3164 25.0781 54.918 25.1016C54.4492 25.125 53.957 25.1367 53.4414 25.1367C52.9258 25.1602 52.3867 25.1836 51.8242 25.207C51.3555 25.2539 50.8281 25.3008 50.2422 25.3477C49.6797 25.3711 49.1172 25.4062 48.5547 25.4531C48.5078 26.4375 48.5078 27.3047 48.5547 28.0547C48.6016 28.7812 48.6719 29.4023 48.7656 29.918C48.8594 30.5273 48.9766 31.0547 49.1172 31.5C49.2578 31.9219 49.4102 32.3438 49.5742 32.7656C49.7148 33.1406 49.8789 33.5391 50.0664 33.9609C50.2773 34.3828 50.4883 34.7578 50.6992 35.0859C50.2539 35.0391 49.8438 35.0039 49.4688 34.9805C49.0938 34.9336 48.7656 34.8867 48.4844 34.8398C48.1562 34.8164 47.8398 34.793 47.5352 34.7695C47.2305 34.7695 46.8672 34.7578 46.4453 34.7344C46.0703 34.7109 45.6016 34.6992 45.0391 34.6992C44.4766 34.6758 43.8203 34.6641 43.0703 34.6641C43.5156 34.2188 43.8672 33.7852 44.125 33.3633C44.4062 32.918 44.6055 32.5195 44.7227 32.168C44.8633 31.7461 44.957 31.3594 45.0039 31.0078C45.0273 30.7031 45.0391 30.1289 45.0391 29.2852C45.0625 28.4414 45.0625 27.4805 45.0391 26.4023C45.0391 25.3008 45.0273 24.1523 45.0039 22.957C44.9805 21.7383 44.9453 20.6016 44.8984 19.5469C44.875 18.4922 44.8398 17.5898 44.793 16.8398C44.7695 16.0664 44.7461 15.5859 44.7227 15.3984C44.6055 14.9766 44.4297 14.5195 44.1953 14.0273C43.9844 13.6289 43.7031 13.1719 43.3516 12.6562C43 12.1172 42.5195 11.5781 41.9102 11.0391ZM64.7617 20.2852L71.2305 20.3555C70.8555 21.7852 70.5742 23.0039 70.3867 24.0117C70.2227 25.0195 70.1172 25.8633 70.0703 26.543C69.9766 27.3164 69.9531 27.9727 70 28.5117C70.0703 29.0039 70.1875 29.5312 70.3516 30.0938C70.4922 30.5625 70.7031 31.1016 70.9844 31.7109C71.2656 32.3203 71.6406 32.9297 72.1094 33.5391C71.8281 33.4453 71.5234 33.375 71.1953 33.3281C70.8672 33.2812 70.5625 33.2461 70.2812 33.2227C69.9531 33.1992 69.625 33.1992 69.2969 33.2227C68.9688 33.2461 68.6055 33.2812 68.207 33.3281C67.8789 33.375 67.4805 33.4336 67.0117 33.5039C66.543 33.5742 66.0508 33.668 65.5352 33.7852C65.8867 32.7305 66.1562 31.8164 66.3438 31.043C66.5547 30.2695 66.707 29.625 66.8008 29.1094C66.8945 28.5 66.9531 28.0078 66.9766 27.6328C66.9766 27.1641 66.9766 26.6367 66.9766 26.0508C66.9766 25.4414 66.9766 24.8555 66.9766 24.293C66.9766 23.7305 66.9648 23.2383 66.9414 22.8164C66.918 22.3711 66.8711 22.0898 66.8008 21.9727L66.4492 21.6211C66.3086 21.5039 66.0977 21.3398 65.8164 21.1289C65.5586 20.8945 65.207 20.6133 64.7617 20.2852ZM67.2578 14.8711C67.75 14.6133 68.2422 14.543 68.7344 14.6602C69.25 14.7773 69.6484 15 69.9297 15.3281C70.2109 15.6563 70.3047 16.043 70.2109 16.4883C70.1406 16.9336 69.7656 17.3672 69.0859 17.7891C68.4062 18.1875 67.8086 18.3281 67.293 18.2109C66.7773 18.0938 66.4141 17.8477 66.2031 17.4727C65.9922 17.0977 65.957 16.6641 66.0977 16.1719C66.2383 15.6563 66.625 15.2227 67.2578 14.8711ZM73.1992 19.3359C73.7383 19.2891 74.1953 19.2422 74.5703 19.1953C74.9688 19.1484 75.2969 19.1016 75.5547 19.0547C75.8594 19.0078 76.1172 18.9609 76.3281 18.9141C76.5391 18.8906 76.7734 18.8438 77.0312 18.7734C77.2656 18.7266 77.5234 18.668 77.8047 18.5977C78.1094 18.5039 78.4375 18.3984 78.7891 18.2812L78.5781 22.7461C79.0938 21.9258 79.6914 21.3047 80.3711 20.8828C81.0508 20.4375 81.6953 20.1094 82.3047 19.8984C83.0312 19.6406 83.7578 19.4883 84.4844 19.4414C85.2344 19.4648 85.9258 19.582 86.5586 19.793C87.0977 19.9805 87.6367 20.2734 88.1758 20.6719C88.7383 21.0703 89.1719 21.6562 89.4766 22.4297C90.2734 21.6094 91.0586 20.9766 91.832 20.5312C92.6289 20.0625 93.332 19.7109 93.9414 19.4766C94.668 19.2188 95.3477 19.0664 95.9805 19.0195C96.8242 18.9961 97.5977 19.1367 98.3008 19.4414C99.0273 19.7461 99.6602 20.1328 100.199 20.6016C100.738 21.0469 101.172 21.5273 101.5 22.043C101.828 22.5352 102.016 22.9688 102.062 23.3438C102.133 23.8594 102.098 24.5273 101.957 25.3477C101.816 26.1445 101.652 26.9648 101.465 27.8086C101.277 28.6289 101.102 29.3906 100.938 30.0938C100.797 30.7734 100.738 31.2539 100.762 31.5352C100.832 31.7695 100.996 32.0508 101.254 32.3789C101.488 32.6602 101.828 33.0117 102.273 33.4336C102.742 33.832 103.41 34.3008 104.277 34.8398C103.527 34.8164 102.859 34.793 102.273 34.7695C101.711 34.7461 101.23 34.7109 100.832 34.6641C100.363 34.6172 99.9531 34.582 99.6016 34.5586C99.3203 34.5586 98.9805 34.5352 98.582 34.4883C98.2539 34.4648 97.8203 34.4297 97.2812 34.3828C96.7656 34.3359 96.168 34.2891 95.4883 34.2422C95.7461 34.1719 95.957 34.043 96.1211 33.8555C96.2852 33.6445 96.4258 33.4453 96.543 33.2578C96.6602 33.0234 96.7539 32.7656 96.8242 32.4844C96.8711 32.25 96.918 31.875 96.9648 31.3594C97.0117 30.8438 97.0469 30.2578 97.0703 29.6016C97.1172 28.9453 97.1406 28.2539 97.1406 27.5273C97.1641 26.8008 97.1641 26.1094 97.1406 25.4531C97.1172 24.7969 97.0703 24.1992 97 23.6602C96.9297 23.1211 96.8359 22.7109 96.7188 22.4297C96.625 22.2188 96.4609 22.0547 96.2266 21.9375C95.9922 21.7969 95.7227 21.7148 95.418 21.6914C95.1133 21.6445 94.8086 21.6562 94.5039 21.7266C94.1992 21.7734 93.9297 21.8672 93.6953 22.0078C93.4844 22.1719 93.2031 22.3945 92.8516 22.6758C92.5469 22.9336 92.1484 23.2852 91.6562 23.7305C91.1641 24.1758 90.543 24.7383 89.793 25.418C89.7227 26.8945 89.6641 28.0898 89.6172 29.0039C89.5938 29.8945 89.5703 30.5742 89.5469 31.043C89.5234 31.6055 89.5117 31.9922 89.5117 32.2031C89.4883 32.3906 89.5 32.5664 89.5469 32.7305C89.5938 33.082 89.7344 33.4102 89.9688 33.7148C89.6875 33.6445 89.3828 33.5977 89.0547 33.5742C88.75 33.5508 88.4688 33.5273 88.2109 33.5039C87.9062 33.4805 87.6016 33.4688 87.2969 33.4688C87.0391 33.4688 86.7578 33.4805 86.4531 33.5039C86.1953 33.5273 85.8789 33.5625 85.5039 33.6094C85.1289 33.6328 84.7188 33.668 84.2734 33.7148C84.4609 33.5977 84.6133 33.457 84.7305 33.293C84.8477 33.1289 84.9414 32.9766 85.0117 32.8359C85.1055 32.6719 85.1758 32.5195 85.2227 32.3789C85.2461 32.2383 85.293 31.8984 85.3633 31.3594C85.4336 30.7969 85.4805 30.1406 85.5039 29.3906C85.5273 28.6406 85.5273 27.8555 85.5039 27.0352C85.4805 26.1914 85.3984 25.4297 85.2578 24.75C85.1172 24.0469 84.8945 23.4727 84.5898 23.0273C84.3086 22.582 83.9336 22.3828 83.4648 22.4297C82.9023 22.4766 82.3281 22.6172 81.7422 22.8516C81.25 23.0391 80.7227 23.3203 80.1602 23.6953C79.5977 24.0703 79.0703 24.5742 78.5781 25.207C78.4844 26.9648 78.4258 28.3594 78.4023 29.3906C78.4023 30.4219 78.4141 31.207 78.4375 31.7461C78.4609 32.3789 78.4844 32.8125 78.5078 33.0469C78.5312 33.2109 78.5898 33.375 78.6836 33.5391C78.7539 33.6797 78.8359 33.8438 78.9297 34.0312C79.0469 34.2188 79.1758 34.3945 79.3164 34.5586L73.7266 34.2773C73.9141 34.1836 74.0781 34.0664 74.2188 33.9258C74.3594 33.7617 74.4766 33.5977 74.5703 33.4336C74.6641 33.2461 74.7578 33.0586 74.8516 32.8711C74.9219 32.707 74.9805 32.3203 75.0273 31.7109C75.0977 31.1016 75.1562 30.3867 75.2031 29.5664C75.25 28.7227 75.2852 27.8438 75.3086 26.9297C75.3555 25.9922 75.3789 25.125 75.3789 24.3281C75.4023 23.5078 75.4141 22.8164 75.4141 22.2539C75.4141 21.668 75.4023 21.3164 75.3789 21.1992C75.3086 20.9648 75.1797 20.7188 74.9922 20.4609C74.8281 20.2734 74.6055 20.0742 74.3242 19.8633C74.043 19.6289 73.668 19.4531 73.1992 19.3359ZM104.629 19.8281C105.238 19.9453 105.766 20.0391 106.211 20.1094C106.68 20.1562 107.078 20.2031 107.406 20.25C107.781 20.2969 108.109 20.332 108.391 20.3555C108.672 20.3789 109 20.4023 109.375 20.4258C110.008 20.4492 110.898 20.4492 112.047 20.4258C111.367 20.3789 110.828 20.5547 110.43 20.9531C110.055 21.3281 109.773 21.7617 109.586 22.2539C109.352 22.8398 109.223 23.5195 109.199 24.293C109.152 25.3242 109.176 26.2617 109.27 27.1055C109.387 27.9258 109.586 28.6289 109.867 29.2148C110.172 29.7773 110.57 30.1992 111.062 30.4805C111.555 30.7383 112.188 30.8086 112.961 30.6914C113.734 30.5742 114.32 30.3047 114.719 29.8828C115.141 29.4375 115.445 28.8984 115.633 28.2656C115.82 27.6094 115.926 26.8711 115.949 26.0508C115.996 25.2305 116.031 24.375 116.055 23.4844C116.055 22.5938 116.043 21.9609 116.02 21.5859C116.02 21.1875 116.008 20.9297 115.984 20.8125C115.961 20.6953 115.926 20.6484 115.879 20.6719C115.832 20.6719 115.773 20.6133 115.703 20.4961C115.656 20.4023 115.586 20.3086 115.492 20.2148C115.422 20.1211 115.328 20.0156 115.211 19.8984C115.094 19.7578 114.965 19.6172 114.824 19.4766C115.434 19.5 115.973 19.5234 116.441 19.5469C116.934 19.5469 117.344 19.5586 117.672 19.582C118.047 19.6055 118.375 19.6289 118.656 19.6523C118.914 19.6758 119.254 19.7109 119.676 19.7578C120.027 19.8047 120.484 19.8516 121.047 19.8984C121.609 19.9453 122.277 20.0156 123.051 20.1094C122.512 20.2266 122.078 20.4023 121.75 20.6367C121.422 20.8711 121.164 21.1055 120.977 21.3398C120.766 21.5977 120.613 21.8789 120.52 22.1836C120.449 22.582 120.449 23.1914 120.52 24.0117C120.566 24.7383 120.684 25.7344 120.871 27C121.059 28.2656 121.352 29.9297 121.75 31.9922L118.973 33.6445L118.41 28.9688C117.73 30.1172 117.004 31.0078 116.23 31.6406C115.48 32.25 114.777 32.6953 114.121 32.9766C113.348 33.3047 112.598 33.4922 111.871 33.5391C110.91 33.5391 110.078 33.4805 109.375 33.3633C108.695 33.2227 108.109 33.0469 107.617 32.8359C107.125 32.625 106.727 32.3906 106.422 32.1328C106.141 31.8516 105.93 31.5703 105.789 31.2891C105.461 30.7031 105.285 29.9531 105.262 29.0391C105.238 28.1016 105.273 27.1758 105.367 26.2617C105.461 25.3242 105.566 24.4688 105.684 23.6953C105.801 22.9219 105.836 22.3945 105.789 22.1133C105.742 21.9023 105.672 21.668 105.578 21.4102C105.484 21.1992 105.367 20.9648 105.227 20.707C105.086 20.4258 104.887 20.1328 104.629 19.8281Z" fill="white"/>
</svg>
